<svg width="25" height="25" viewBox="0 0 25 25" fill="none" xmlns="http://www.w3.org/2000/svg">
<path d="M13.2485 4.78408L19.806 11.4263C19.9053 11.5269 19.9756 11.6357 20.0169 11.7526C20.0581 11.8696 20.078 11.9947 20.0765 12.128C20.0756 12.2614 20.0538 12.3862 20.0111 12.5026C19.9683 12.619 19.897 12.7269 19.797 12.8262L13.1548 19.3838C12.9703 19.5659 12.7404 19.6601 12.465 19.6664C12.1896 19.6726 11.9529 19.5754 11.7548 19.3748C11.556 19.1902 11.4532 18.9602 11.4463 18.6848C11.4393 18.4094 11.5369 18.1727 11.7388 17.9747L16.6701 13.1062L5.49537 13.0345C5.21204 13.0327 4.975 12.9352 4.78423 12.7419C4.59347 12.5487 4.49933 12.3108 4.5018 12.0281C4.50362 11.7448 4.60081 11.5077 4.79337 11.317C4.98593 11.1262 5.22421 11.0321 5.5082 11.0346L16.683 11.1062L11.8145 6.17491C11.6323 5.9904 11.5378 5.75646 11.531 5.47307C11.5241 5.18969 11.6216 4.95698 11.8235 4.77494C12.0081 4.57612 12.2421 4.47761 12.5254 4.47943C12.8087 4.48125 13.0497 4.5828 13.2485 4.78408Z" fill="black"/>
</svg>
