<svg width="14" height="14" viewBox="0 0 14 14" fill="none" xmlns="http://www.w3.org/2000/svg">
<path d="M3.57 8.74002L0.830005 6.00002C0.70108 5.87123 0.606171 5.71243 0.553807 5.53788C0.501443 5.36333 0.493264 5.17851 0.530005 5.00002C0.5656 4.80377 0.652959 4.62058 0.783053 4.46939C0.913147 4.3182 1.08126 4.20449 1.27 4.14002L12 0.56002C12.2011 0.485305 12.4193 0.46989 12.6289 0.515606C12.8384 0.561322 13.0305 0.666247 13.1821 0.817909C13.3338 0.969571 13.4387 1.16159 13.4844 1.37114C13.5301 1.5807 13.5147 1.79897 13.44 2.00002L9.86 12.73C9.7998 12.9125 9.69367 13.0764 9.55182 13.206C9.40996 13.3356 9.23716 13.4265 9.05 13.47C8.86402 13.5158 8.66931 13.5121 8.48515 13.4595C8.30099 13.4069 8.13376 13.3071 8 13.17L5.82 11L3.48 12.21L3.57 8.74002ZM3.57 8.74002L13.12 0.78002" stroke="black" stroke-linecap="round" stroke-linejoin="round"/>
</svg>
