<svg width="25" height="25" viewBox="0 0 25 25" fill="none" xmlns="http://www.w3.org/2000/svg">
<path d="M9.63542 22.9167L9.21875 19.5833C8.99306 19.4965 8.78021 19.3924 8.58021 19.2708C8.38021 19.1493 8.18507 19.0191 7.99479 18.8802L4.89583 20.1823L2.03125 15.2344L4.71354 13.2031C4.69618 13.0816 4.6875 12.9642 4.6875 12.8511V12.149C4.6875 12.0358 4.69618 11.9184 4.71354 11.7969L2.03125 9.76564L4.89583 4.81772L7.99479 6.1198C8.18576 5.98091 8.38542 5.8507 8.59375 5.72918C8.80208 5.60765 9.01042 5.50348 9.21875 5.41668L9.63542 2.08334H15.3646L15.7812 5.41668C16.0069 5.50348 16.2198 5.60765 16.4198 5.72918C16.6198 5.8507 16.8149 5.98091 17.0052 6.1198L20.1042 4.81772L22.9687 9.76564L20.2865 11.7969C20.3038 11.9184 20.3125 12.0358 20.3125 12.149V12.8511C20.3125 12.9642 20.2951 13.0816 20.2604 13.2031L22.9427 15.2344L20.0781 20.1823L17.0052 18.8802C16.8142 19.0191 16.6146 19.1493 16.4062 19.2708C16.1979 19.3924 15.9896 19.4965 15.7812 19.5833L15.3646 22.9167H9.63542ZM12.5521 16.1458C13.559 16.1458 14.4184 15.7899 15.1302 15.0781C15.842 14.3663 16.1979 13.507 16.1979 12.5C16.1979 11.4931 15.842 10.6337 15.1302 9.92189C14.4184 9.21008 13.559 8.85418 12.5521 8.85418C11.5278 8.85418 10.6639 9.21008 9.96042 9.92189C9.25694 10.6337 8.90556 11.4931 8.90625 12.5C8.90625 13.507 9.25764 14.3663 9.96042 15.0781C10.6632 15.7899 11.5271 16.1458 12.5521 16.1458ZM12.5521 14.0625C12.1181 14.0625 11.749 13.9104 11.4448 13.6063C11.1406 13.3021 10.9889 12.9333 10.9896 12.5C10.9896 12.066 11.1417 11.6969 11.4458 11.3927C11.75 11.0886 12.1187 10.9368 12.5521 10.9375C12.9861 10.9375 13.3552 11.0896 13.6594 11.3938C13.9635 11.6979 14.1153 12.0667 14.1146 12.5C14.1146 12.934 13.9625 13.3031 13.6583 13.6073C13.3542 13.9115 12.9854 14.0632 12.5521 14.0625ZM11.4583 20.8333H13.5156L13.8802 18.0729C14.4184 17.934 14.9177 17.7299 15.3781 17.4604C15.8385 17.191 16.2594 16.8656 16.6406 16.4844L19.2188 17.5521L20.2344 15.7813L17.9948 14.0886C18.0816 13.8455 18.1424 13.5896 18.1771 13.3208C18.2118 13.0521 18.2292 12.7785 18.2292 12.5C18.2292 12.2222 18.2118 11.949 18.1771 11.6802C18.1424 11.4115 18.0816 11.1552 17.9948 10.9115L20.2344 9.21876L19.2188 7.44793L16.6406 8.54168C16.2587 8.14237 15.8378 7.80834 15.3781 7.53959C14.9184 7.27084 14.4191 7.06668 13.8802 6.92709L13.5417 4.16668H11.4844L11.1198 6.92709C10.5816 7.06598 10.0826 7.27015 9.62292 7.53959C9.16319 7.80904 8.74201 8.13439 8.35937 8.51564L5.78125 7.44793L4.76562 9.21876L7.00521 10.8854C6.9184 11.1458 6.85764 11.4063 6.82292 11.6667C6.78819 11.9271 6.77083 12.2049 6.77083 12.5C6.77083 12.7778 6.78819 13.0469 6.82292 13.3073C6.85764 13.5677 6.9184 13.8281 7.00521 14.0886L4.76562 15.7813L5.78125 17.5521L8.35937 16.4583C8.74132 16.8577 9.1625 17.192 9.62292 17.4615C10.0833 17.7309 10.5823 17.9347 11.1198 18.0729L11.4583 20.8333Z" fill="black"/>
</svg>
